<svg xmlns="http://www.w3.org/2000/svg" xmlns:xlink="http://www.w3.org/1999/xlink" viewBox="0 0 225.391 105.782"><defs><path id="a" d="M179.738 0l-54.205 25.569.701-23.555-28.273 37.81h2.688l23.617-31.987-1.402 22.286 41.113-20.492-43.784 32.314 3.546 16.464H99.57L58.676 92.386l28.196-34.59H61.915l3.14-1.308h-4.58l-9.116 3.933 30.518.263-37.261 45.098 56.81-43.15 28.618.418-5.737-20.185z"/></defs><clipPath id="b"><use xlink:href="#a" overflow="visible"/></clipPath><linearGradient id="c" gradientUnits="userSpaceOnUse" x1="0" y1="105.782" x2="1" y2="105.782" gradientTransform="scale(53.9516) rotate(56.977 97.847 54.836)"><stop offset="0" stop-color="#d9dada"/><stop offset=".459" stop-color="#264691"/><stop offset=".71" stop-color="#00a0e3"/><stop offset="1" stop-color="#264796"/></linearGradient><path clip-path="url(#b)" fill="url(#c)" d="M-3.72 31.418l88.468 136.107 143.326-93.161-88.468-136.107z"/><path fill="#2B2A29" d="M0 41.986v11.471h21.28V51.27H2.278v-7.181H21.28v-2.103z"/><path fill-rule="evenodd" clip-rule="evenodd" fill="#2B2A29" d="M23.862 41.986h21.28v11.472h-2.143v-4.794H26.404v4.794h-2.542V41.986zm2.542 2.18h16.595v2.396H26.404v-2.396zM48.207 41.986h21.279v6.788h-2.734l2.734 4.684h-2.515l-3.153-4.684H50.639v4.684h-2.432V41.986zm2.313 2.103h17.032v2.627H50.52v-2.627zM72.946 41.986h21.279v2.188H75.136v7.05h16.508l-.023-2.277-4.715-.001.029-2.254h7.29v6.766H72.946zM97.335 41.986h21.279v11.472H97.335V41.986zm2.627 2.276h16.507v6.743H99.962v-6.743zM179.768 41.986h21.279v11.472h-2.143v-4.794h-16.595v4.794h-2.541V41.986zm2.541 2.18h16.595v2.396h-16.595v-2.396z"/><path fill="#2B2A29" d="M206.426 44.089h17.031v2.626h-17.031v-2.626zm-2.314-2.103v11.471h2.433v-4.683h13.178l3.153 4.683h2.516l-2.735-4.683h2.735v-6.788h-21.28z"/><path fill-rule="evenodd" clip-rule="evenodd" fill="#2B2A29" d="M131.999 41.986h21.279v2.022h-19.023v2.671h19.023v6.779h-21.279v-2.212h18.959v-2.671h-18.959zM155.818 41.986h21.278v2.277h-9.413v9.195h-2.452v-9.195h-9.413z"/></svg>